solid pcm
facet normal 0 0 1
outer loop
vertex 0 0 0
vertex 0.14 0 0
vertex 0.14 1.2 0
endloop
endfacet
facet normal 0 0 1
outer loop
vertex 0 0 0
vertex 0.14 1.2 0
vertex 0 1.2 0
endloop
endfacet
facet normal 0 0 -1
outer loop
vertex 0 0 1.2
vertex 0 1.2 1.2
vertex 0.14 1.2 1.2
endloop
endfacet
facet normal 0 0 -1
outer loop
vertex 0 0 1.2
vertex 0.14 1.2 1.2
vertex 0.14 0 1.2
endloop
endfacet
facet normal 0 1 0
outer loop
vertex 0 0 0
vertex 0 0 1.2
vertex 0.14 0 1.2
endloop
endfacet
facet normal 0 1 0
outer loop
vertex 0 0 0
vertex 0.14 0 1.2
vertex 0.14 0 0
endloop
endfacet
facet normal -1 0 0
outer loop
vertex 0.14 0 0
vertex 0.14 0 1.2
vertex 0.14 1.2 1.2
endloop
endfacet
facet normal -1 0 0
outer loop
vertex 0.14 0 0
vertex 0.14 1.2 1.2
vertex 0.14 1.2 0
endloop
endfacet
facet normal 0 -1 0
outer loop
vertex 0.14 1.2 0
vertex 0.14 1.2 1.2
vertex 0 1.2 1.2
endloop
endfacet
facet normal 0 -1 0
outer loop
vertex 0.14 1.2 0
vertex 0 1.2 1.2
vertex 0 1.2 0
endloop
endfacet
facet normal 1 0 -0
outer loop
vertex 0 1.2 0
vertex 0 1.2 1.2
vertex 0 0 1.2
endloop
endfacet
facet normal 1 0 0
outer loop
vertex 0 1.2 0
vertex 0 0 1.2
vertex 0 0 0
endloop
endfacet
facet normal 0 0 1
outer loop
vertex 0.14 0 0
vertex 1.34 0 0
vertex 1.34 0.05 0
endloop
endfacet
facet normal 0 0 1
outer loop
vertex 0.14 0 0
vertex 1.34 0.05 0
vertex 0.14 0.05 0
endloop
endfacet
facet normal 0 0 -1
outer loop
vertex 0.14 0 0.05
vertex 0.14 0.05 0.05
vertex 1.34 0.05 0.05
endloop
endfacet
facet normal 0 0 -1
outer loop
vertex 0.14 0 0.05
vertex 1.34 0.05 0.05
vertex 1.34 0 0.05
endloop
endfacet
facet normal 0 1 0
outer loop
vertex 0.14 0 0
vertex 0.14 0 0.05
vertex 1.34 0 0.05
endloop
endfacet
facet normal 0 1 0
outer loop
vertex 0.14 0 0
vertex 1.34 0 0.05
vertex 1.34 0 0
endloop
endfacet
facet normal -1 0 0
outer loop
vertex 1.34 0 0
vertex 1.34 0 0.05
vertex 1.34 0.05 0.05
endloop
endfacet
facet normal -1 0 0
outer loop
vertex 1.34 0 0
vertex 1.34 0.05 0.05
vertex 1.34 0.05 0
endloop
endfacet
facet normal 0 -1 0
outer loop
vertex 1.34 0.05 0
vertex 1.34 0.05 0.05
vertex 0.14 0.05 0.05
endloop
endfacet
facet normal 0 -1 0
outer loop
vertex 1.34 0.05 0
vertex 0.14 0.05 0.05
vertex 0.14 0.05 0
endloop
endfacet
facet normal 1 0 -0
outer loop
vertex 0.14 0.05 0
vertex 0.14 0.05 0.05
vertex 0.14 0 0.05
endloop
endfacet
facet normal 1 0 0
outer loop
vertex 0.14 0.05 0
vertex 0.14 0 0.05
vertex 0.14 0 0
endloop
endfacet
facet normal 0 0 1
outer loop
vertex 0.14 1.15 0
vertex 1.34 1.15 0
vertex 1.34 1.2 0
endloop
endfacet
facet normal 0 0 1
outer loop
vertex 0.14 1.15 0
vertex 1.34 1.2 0
vertex 0.14 1.2 0
endloop
endfacet
facet normal 0 0 -1
outer loop
vertex 0.14 1.15 0.05
vertex 0.14 1.2 0.05
vertex 1.34 1.2 0.05
endloop
endfacet
facet normal 0 0 -1
outer loop
vertex 0.14 1.15 0.05
vertex 1.34 1.2 0.05
vertex 1.34 1.15 0.05
endloop
endfacet
facet normal 0 1 0
outer loop
vertex 0.14 1.15 0
vertex 0.14 1.15 0.05
vertex 1.34 1.15 0.05
endloop
endfacet
facet normal 0 1 0
outer loop
vertex 0.14 1.15 0
vertex 1.34 1.15 0.05
vertex 1.34 1.15 0
endloop
endfacet
facet normal -1 0 0
outer loop
vertex 1.34 1.15 0
vertex 1.34 1.15 0.05
vertex 1.34 1.2 0.05
endloop
endfacet
facet normal -1 0 0
outer loop
vertex 1.34 1.15 0
vertex 1.34 1.2 0.05
vertex 1.34 1.2 0
endloop
endfacet
facet normal 0 -1 0
outer loop
vertex 1.34 1.2 0
vertex 1.34 1.2 0.05
vertex 0.14 1.2 0.05
endloop
endfacet
facet normal 0 -1 0
outer loop
vertex 1.34 1.2 0
vertex 0.14 1.2 0.05
vertex 0.14 1.2 0
endloop
endfacet
facet normal 1 0 -0
outer loop
vertex 0.14 1.2 0
vertex 0.14 1.2 0.05
vertex 0.14 1.15 0.05
endloop
endfacet
facet normal 1 0 0
outer loop
vertex 0.14 1.2 0
vertex 0.14 1.15 0.05
vertex 0.14 1.15 0
endloop
endfacet
facet normal 0 0 1
outer loop
vertex 0.14 0 1.15
vertex 1.34 0 1.15
vertex 1.34 0.05 1.15
endloop
endfacet
facet normal 0 0 1
outer loop
vertex 0.14 0 1.15
vertex 1.34 0.05 1.15
vertex 0.14 0.05 1.15
endloop
endfacet
facet normal 0 0 -1
outer loop
vertex 0.14 0 1.2
vertex 0.14 0.05 1.2
vertex 1.34 0.05 1.2
endloop
endfacet
facet normal 0 0 -1
outer loop
vertex 0.14 0 1.2
vertex 1.34 0.05 1.2
vertex 1.34 0 1.2
endloop
endfacet
facet normal 0 1 0
outer loop
vertex 0.14 0 1.15
vertex 0.14 0 1.2
vertex 1.34 0 1.2
endloop
endfacet
facet normal 0 1 0
outer loop
vertex 0.14 0 1.15
vertex 1.34 0 1.2
vertex 1.34 0 1.15
endloop
endfacet
facet normal -1 0 0
outer loop
vertex 1.34 0 1.15
vertex 1.34 0 1.2
vertex 1.34 0.05 1.2
endloop
endfacet
facet normal -1 0 0
outer loop
vertex 1.34 0 1.15
vertex 1.34 0.05 1.2
vertex 1.34 0.05 1.15
endloop
endfacet
facet normal 0 -1 0
outer loop
vertex 1.34 0.05 1.15
vertex 1.34 0.05 1.2
vertex 0.14 0.05 1.2
endloop
endfacet
facet normal 0 -1 0
outer loop
vertex 1.34 0.05 1.15
vertex 0.14 0.05 1.2
vertex 0.14 0.05 1.15
endloop
endfacet
facet normal 1 0 -0
outer loop
vertex 0.14 0.05 1.15
vertex 0.14 0.05 1.2
vertex 0.14 0 1.2
endloop
endfacet
facet normal 1 0 0
outer loop
vertex 0.14 0.05 1.15
vertex 0.14 0 1.2
vertex 0.14 0 1.15
endloop
endfacet
facet normal 0 0 1
outer loop
vertex 0.14 1.15 1.15
vertex 1.34 1.15 1.15
vertex 1.34 1.2 1.15
endloop
endfacet
facet normal 0 0 1
outer loop
vertex 0.14 1.15 1.15
vertex 1.34 1.2 1.15
vertex 0.14 1.2 1.15
endloop
endfacet
facet normal 0 0 -1
outer loop
vertex 0.14 1.15 1.2
vertex 0.14 1.2 1.2
vertex 1.34 1.2 1.2
endloop
endfacet
facet normal 0 0 -1
outer loop
vertex 0.14 1.15 1.2
vertex 1.34 1.2 1.2
vertex 1.34 1.15 1.2
endloop
endfacet
facet normal 0 1 0
outer loop
vertex 0.14 1.15 1.15
vertex 0.14 1.15 1.2
vertex 1.34 1.15 1.2
endloop
endfacet
facet normal 0 1 0
outer loop
vertex 0.14 1.15 1.15
vertex 1.34 1.15 1.2
vertex 1.34 1.15 1.15
endloop
endfacet
facet normal -1 0 0
outer loop
vertex 1.34 1.15 1.15
vertex 1.34 1.15 1.2
vertex 1.34 1.2 1.2
endloop
endfacet
facet normal -1 0 0
outer loop
vertex 1.34 1.15 1.15
vertex 1.34 1.2 1.2
vertex 1.34 1.2 1.15
endloop
endfacet
facet normal 0 -1 0
outer loop
vertex 1.34 1.2 1.15
vertex 1.34 1.2 1.2
vertex 0.14 1.2 1.2
endloop
endfacet
facet normal 0 -1 0
outer loop
vertex 1.34 1.2 1.15
vertex 0.14 1.2 1.2
vertex 0.14 1.2 1.15
endloop
endfacet
facet normal 1 0 -0
outer loop
vertex 0.14 1.2 1.15
vertex 0.14 1.2 1.2
vertex 0.14 1.15 1.2
endloop
endfacet
facet normal 1 0 0
outer loop
vertex 0.14 1.2 1.15
vertex 0.14 1.15 1.2
vertex 0.14 1.15 1.15
endloop
endfacet
facet normal 0 0 1
outer loop
vertex 1.29 0 0
vertex 1.34 0 0
vertex 1.34 1.2 0
endloop
endfacet
facet normal 0 0 1
outer loop
vertex 1.29 0 0
vertex 1.34 1.2 0
vertex 1.29 1.2 0
endloop
endfacet
facet normal 0 0 -1
outer loop
vertex 1.29 0 0.05
vertex 1.29 1.2 0.05
vertex 1.34 1.2 0.05
endloop
endfacet
facet normal 0 0 -1
outer loop
vertex 1.29 0 0.05
vertex 1.34 1.2 0.05
vertex 1.34 0 0.05
endloop
endfacet
facet normal 0 1 0
outer loop
vertex 1.29 0 0
vertex 1.29 0 0.05
vertex 1.34 0 0.05
endloop
endfacet
facet normal 0 1 0
outer loop
vertex 1.29 0 0
vertex 1.34 0 0.05
vertex 1.34 0 0
endloop
endfacet
facet normal -1 0 0
outer loop
vertex 1.34 0 0
vertex 1.34 0 0.05
vertex 1.34 1.2 0.05
endloop
endfacet
facet normal -1 0 0
outer loop
vertex 1.34 0 0
vertex 1.34 1.2 0.05
vertex 1.34 1.2 0
endloop
endfacet
facet normal 0 -1 0
outer loop
vertex 1.34 1.2 0
vertex 1.34 1.2 0.05
vertex 1.29 1.2 0.05
endloop
endfacet
facet normal 0 -1 0
outer loop
vertex 1.34 1.2 0
vertex 1.29 1.2 0.05
vertex 1.29 1.2 0
endloop
endfacet
facet normal 1 0 -0
outer loop
vertex 1.29 1.2 0
vertex 1.29 1.2 0.05
vertex 1.29 0 0.05
endloop
endfacet
facet normal 1 0 0
outer loop
vertex 1.29 1.2 0
vertex 1.29 0 0.05
vertex 1.29 0 0
endloop
endfacet
facet normal 0 0 1
outer loop
vertex 1.29 0 1.15
vertex 1.34 0 1.15
vertex 1.34 1.2 1.15
endloop
endfacet
facet normal 0 0 1
outer loop
vertex 1.29 0 1.15
vertex 1.34 1.2 1.15
vertex 1.29 1.2 1.15
endloop
endfacet
facet normal 0 0 -1
outer loop
vertex 1.29 0 1.2
vertex 1.29 1.2 1.2
vertex 1.34 1.2 1.2
endloop
endfacet
facet normal 0 0 -1
outer loop
vertex 1.29 0 1.2
vertex 1.34 1.2 1.2
vertex 1.34 0 1.2
endloop
endfacet
facet normal 0 1 0
outer loop
vertex 1.29 0 1.15
vertex 1.29 0 1.2
vertex 1.34 0 1.2
endloop
endfacet
facet normal 0 1 0
outer loop
vertex 1.29 0 1.15
vertex 1.34 0 1.2
vertex 1.34 0 1.15
endloop
endfacet
facet normal -1 0 0
outer loop
vertex 1.34 0 1.15
vertex 1.34 0 1.2
vertex 1.34 1.2 1.2
endloop
endfacet
facet normal -1 0 0
outer loop
vertex 1.34 0 1.15
vertex 1.34 1.2 1.2
vertex 1.34 1.2 1.15
endloop
endfacet
facet normal 0 -1 0
outer loop
vertex 1.34 1.2 1.15
vertex 1.34 1.2 1.2
vertex 1.29 1.2 1.2
endloop
endfacet
facet normal 0 -1 0
outer loop
vertex 1.34 1.2 1.15
vertex 1.29 1.2 1.2
vertex 1.29 1.2 1.15
endloop
endfacet
facet normal 1 0 -0
outer loop
vertex 1.29 1.2 1.15
vertex 1.29 1.2 1.2
vertex 1.29 0 1.2
endloop
endfacet
facet normal 1 0 0
outer loop
vertex 1.29 1.2 1.15
vertex 1.29 0 1.2
vertex 1.29 0 1.15
endloop
endfacet
facet normal 0 0 1
outer loop
vertex 0.14 0.42 0.3
vertex 0.96 0.42 0.3
vertex 0.96 0.78 0.3
endloop
endfacet
facet normal 0 0 1
outer loop
vertex 0.14 0.42 0.3
vertex 0.96 0.78 0.3
vertex 0.14 0.78 0.3
endloop
endfacet
facet normal 0 0 -1
outer loop
vertex 0.14 0.42 0.355
vertex 0.14 0.78 0.355
vertex 0.96 0.78 0.355
endloop
endfacet
facet normal 0 0 -1
outer loop
vertex 0.14 0.42 0.355
vertex 0.96 0.78 0.355
vertex 0.96 0.42 0.355
endloop
endfacet
facet normal 0 1 0
outer loop
vertex 0.14 0.42 0.3
vertex 0.14 0.42 0.355
vertex 0.96 0.42 0.355
endloop
endfacet
facet normal 0 1 0
outer loop
vertex 0.14 0.42 0.3
vertex 0.96 0.42 0.355
vertex 0.96 0.42 0.3
endloop
endfacet
facet normal -1 0 0
outer loop
vertex 0.96 0.42 0.3
vertex 0.96 0.42 0.355
vertex 0.96 0.78 0.355
endloop
endfacet
facet normal -1 0 0
outer loop
vertex 0.96 0.42 0.3
vertex 0.96 0.78 0.355
vertex 0.96 0.78 0.3
endloop
endfacet
facet normal 0 -1 0
outer loop
vertex 0.96 0.78 0.3
vertex 0.96 0.78 0.355
vertex 0.14 0.78 0.355
endloop
endfacet
facet normal 0 -1 0
outer loop
vertex 0.96 0.78 0.3
vertex 0.14 0.78 0.355
vertex 0.14 0.78 0.3
endloop
endfacet
facet normal 1 0 -0
outer loop
vertex 0.14 0.78 0.3
vertex 0.14 0.78 0.355
vertex 0.14 0.42 0.355
endloop
endfacet
facet normal 1 0 0
outer loop
vertex 0.14 0.78 0.3
vertex 0.14 0.42 0.355
vertex 0.14 0.42 0.3
endloop
endfacet
facet normal 0 0 1
outer loop
vertex 0.14 0.42 0.58
vertex 0.96 0.42 0.58
vertex 0.96 0.78 0.58
endloop
endfacet
facet normal 0 0 1
outer loop
vertex 0.14 0.42 0.58
vertex 0.96 0.78 0.58
vertex 0.14 0.78 0.58
endloop
endfacet
facet normal 0 0 -1
outer loop
vertex 0.14 0.42 0.635
vertex 0.14 0.78 0.635
vertex 0.96 0.78 0.635
endloop
endfacet
facet normal 0 0 -1
outer loop
vertex 0.14 0.42 0.635
vertex 0.96 0.78 0.635
vertex 0.96 0.42 0.635
endloop
endfacet
facet normal 0 1 0
outer loop
vertex 0.14 0.42 0.58
vertex 0.14 0.42 0.635
vertex 0.96 0.42 0.635
endloop
endfacet
facet normal 0 1 0
outer loop
vertex 0.14 0.42 0.58
vertex 0.96 0.42 0.635
vertex 0.96 0.42 0.58
endloop
endfacet
facet normal -1 0 0
outer loop
vertex 0.96 0.42 0.58
vertex 0.96 0.42 0.635
vertex 0.96 0.78 0.635
endloop
endfacet
facet normal -1 0 0
outer loop
vertex 0.96 0.42 0.58
vertex 0.96 0.78 0.635
vertex 0.96 0.78 0.58
endloop
endfacet
facet normal 0 -1 0
outer loop
vertex 0.96 0.78 0.58
vertex 0.96 0.78 0.635
vertex 0.14 0.78 0.635
endloop
endfacet
facet normal 0 -1 0
outer loop
vertex 0.96 0.78 0.58
vertex 0.14 0.78 0.635
vertex 0.14 0.78 0.58
endloop
endfacet
facet normal 1 0 -0
outer loop
vertex 0.14 0.78 0.58
vertex 0.14 0.78 0.635
vertex 0.14 0.42 0.635
endloop
endfacet
facet normal 1 0 0
outer loop
vertex 0.14 0.78 0.58
vertex 0.14 0.42 0.635
vertex 0.14 0.42 0.58
endloop
endfacet
facet normal 0 0 1
outer loop
vertex 0.14 0.42 0.86
vertex 0.96 0.42 0.86
vertex 0.96 0.78 0.86
endloop
endfacet
facet normal 0 0 1
outer loop
vertex 0.14 0.42 0.86
vertex 0.96 0.78 0.86
vertex 0.14 0.78 0.86
endloop
endfacet
facet normal 0 0 -1
outer loop
vertex 0.14 0.42 0.915
vertex 0.14 0.78 0.915
vertex 0.96 0.78 0.915
endloop
endfacet
facet normal 0 0 -1
outer loop
vertex 0.14 0.42 0.915
vertex 0.96 0.78 0.915
vertex 0.96 0.42 0.915
endloop
endfacet
facet normal 0 1 0
outer loop
vertex 0.14 0.42 0.86
vertex 0.14 0.42 0.915
vertex 0.96 0.42 0.915
endloop
endfacet
facet normal 0 1 0
outer loop
vertex 0.14 0.42 0.86
vertex 0.96 0.42 0.915
vertex 0.96 0.42 0.86
endloop
endfacet
facet normal -1 0 0
outer loop
vertex 0.96 0.42 0.86
vertex 0.96 0.42 0.915
vertex 0.96 0.78 0.915
endloop
endfacet
facet normal -1 0 0
outer loop
vertex 0.96 0.42 0.86
vertex 0.96 0.78 0.915
vertex 0.96 0.78 0.86
endloop
endfacet
facet normal 0 -1 0
outer loop
vertex 0.96 0.78 0.86
vertex 0.96 0.78 0.915
vertex 0.14 0.78 0.915
endloop
endfacet
facet normal 0 -1 0
outer loop
vertex 0.96 0.78 0.86
vertex 0.14 0.78 0.915
vertex 0.14 0.78 0.86
endloop
endfacet
facet normal 1 0 -0
outer loop
vertex 0.14 0.78 0.86
vertex 0.14 0.78 0.915
vertex 0.14 0.42 0.915
endloop
endfacet
facet normal 1 0 0
outer loop
vertex 0.14 0.78 0.86
vertex 0.14 0.42 0.915
vertex 0.14 0.42 0.86
endloop
endfacet
endsolid pcm
